<?xml version="1.0" encoding="utf-8" ?><svg xmlns="http://www.w3.org/2000/svg" xmlns:xlink="http://www.w3.org/1999/xlink" width="512" height="512" viewBox="0 0 512 512"><path fill="#4A575D" d="M0 0L512 0L512 512L0 512L0 0Z"/><path fill="#EE822A" d="M105.026 70.5732C107.638 70.3953 110.249 70.9258 112.584 72.1087C115.937 73.8212 118.442 76.8327 119.515 80.4414C120.701 84.5293 119.772 87.6909 117.89 91.2532C123.56 97.5387 131.695 105.517 137.72 111.677L175.52 150.43L214.096 190.473C224.329 201.182 235.654 213.28 246.271 223.527C253.09 216.647 263.573 211.681 273.317 211.369L273.279 155.413C272.753 155.218 272.23 155.016 271.708 154.808C260.157 150.122 260.125 133.752 271.781 129.206C278.812 126.465 287.403 130.177 289.876 137.419C291.053 140.935 290.762 144.778 289.071 148.078C287.087 152.034 284.278 153.927 280.221 155.207C280.447 173.82 280.086 192.559 280.296 211.206C287.647 211.901 295.804 214.03 301.743 218.579C310.157 205.947 318.692 193.397 327.349 180.93C329.631 177.613 336.62 168.445 337.786 165.316C328.461 155.119 338.613 139.915 351.851 143.48C355.416 144.43 358.433 146.804 360.194 150.045C366.074 160.897 355.851 173.671 343.616 169.478C334.277 183.369 324.672 197.002 315.19 210.792C312.532 214.657 309.618 218.77 307.301 222.823C316.825 231.436 320.797 239.977 321.914 252.563L349.375 252.678C359.771 252.644 370.037 252.415 380.461 252.63C380.874 251.351 381.218 250.353 381.871 249.161C383.631 245.959 386.625 243.619 390.157 242.686C393.798 241.785 397.649 242.373 400.855 244.32C404.084 246.308 406.404 249.483 407.319 253.163C408.152 256.591 407.559 260.21 405.676 263.193C403.626 266.399 400.373 268.646 396.648 269.427C392.927 270.234 389.038 269.489 385.879 267.363C382.834 265.271 381.274 262.545 380.578 259.004C377.222 259.303 372.575 259.217 369.123 259.227L349.503 259.209L332.655 259.221C329.223 259.23 325.139 259.344 321.791 259.078C321.446 271.296 315.939 280.038 307.917 288.634C310.738 293.508 313.97 297.662 316.86 302.333C324.012 313.892 332.38 324.621 339.746 335.977C348.589 333.068 357.698 338.208 358.425 347.871C359.018 355.76 353.163 362.009 345.38 362.397C341.645 362.574 337.99 361.273 335.208 358.774C329.784 353.825 329.023 345.344 334.272 339.929C331.218 334.828 326.719 329.227 323.302 324.122L309.925 304.394C307.422 300.668 304.953 296.581 302.302 293.006C295.66 297.567 288.436 299.835 280.433 300.477L280.309 393.839C280.264 400.273 280.283 406.707 280.366 413.141C281.322 413.447 282.362 413.831 283.247 414.302C286.587 416.105 289.074 419.161 290.162 422.797C291.256 426.392 290.808 429.686 289.026 432.944C287.271 436.156 284.302 438.53 280.782 439.534C268.661 443.08 258.178 430.048 265.107 419.145C267.027 416.123 269.849 414.192 273.295 413.352C273.477 409.223 273.324 404.182 273.333 399.988L273.408 373.757L273.374 300.354C264.253 300.04 255.129 295.536 248.102 289.921C243.618 292.201 238.229 295.523 233.847 298.104L207.62 313.538C174.07 333.044 140.621 352.722 107.274 372.573C107.657 373.647 107.924 374.701 108.017 375.844C108.308 379.24 107.181 382.605 104.904 385.141C102.411 387.945 98.9838 389.468 95.2623 389.674C91.6622 389.883 88.1298 388.632 85.4636 386.204C82.6907 383.69 80.9444 379.876 80.8778 376.13C80.8213 372.417 82.2626 368.836 84.8765 366.198C90.2693 360.854 98.9051 361.311 104.103 366.691C109.416 363.79 114.366 360.532 119.526 357.451C131.561 350.382 143.559 343.25 155.518 336.056L242.841 284.974C236.383 275.957 233.798 269.999 232.983 259.046C224.846 258.955 216.493 259.211 208.32 259.218L144.031 259.233C133.839 259.246 123.267 259.417 113.127 259.192C112.35 264.052 109.3 267.249 104.763 268.959C101.409 270.245 97.6776 270.117 94.42 268.604C90.9801 266.956 88.3505 263.99 87.1265 260.377C85.9522 256.927 86.1069 253.091 87.8031 249.837C89.5788 246.498 92.6354 244.025 96.2711 242.985C99.9059 241.948 103.807 242.449 107.062 244.369C110.52 246.38 112.101 248.985 113.088 252.699C123.147 252.91 133.87 252.584 144.008 252.59L232.84 252.615C233.258 243.914 236.093 235.496 241.898 228.898C238.112 224.738 234.256 220.928 230.355 216.895C225.02 211.273 219.657 205.677 214.264 200.11L167.137 151.348L131.076 114.459C127.372 110.681 123.615 106.968 119.901 103.204C117.455 100.724 115.36 98.207 112.755 95.8509C107.871 98.3112 102.947 98.1121 98.3398 95.078C89.9598 89.5596 90.8548 75.8568 100.226 71.8605C101.958 71.1222 103.168 70.8714 105.026 70.5732Z"/></svg>